<?xml version="1.0"?>
<svg xmlns="http://www.w3.org/2000/svg" xmlns:xlink="http://www.w3.org/1999/xlink" xmlns:svgjs="http://svgjs.com/svgjs" version="1.1" width="512" height="512" x="0" y="0" viewBox="0 0 512 512" style="enable-background:new 0 0 512 512" xml:space="preserve" class=""><g><path xmlns="http://www.w3.org/2000/svg" d="m400 360h32v-48a8 8 0 0 1 6.537-7.865l37.685-7.009a225.557 225.557 0 0 0 -1.392-89.126h-42.83a8 8 0 0 1 -7.919-6.868l-7.5-52.46-43.003-28.672h-37.578a8 8 0 0 1 -8-8v-68.178a224.437 224.437 0 0 0 -210.6 36.178h34.6v16h-52.744c-.548.538-1.1 1.065-1.648 1.608a225.909 225.909 0 0 0 -30.841 38.392h53.233v16h-62.5a221.144 221.144 0 0 0 -16.26 40h78.76v16h-82.862a225.353 225.353 0 0 0 -4.982 40h311.844v-40h-80v-16h144v16h-48v40h72v16h-224v40h208v16h-88v40h32v16h-96v40h80v16h-136v-16h40v-40h-181.233a225.909 225.909 0 0 0 30.841 38.392c.544.543 1.1 1.07 1.648 1.608h60.744v16h-42.6a224.175 224.175 0 0 0 242.6 22.431v-54.431a8 8 0 0 1 2.343-5.657l32-32a8 8 0 0 1 5.657-2.343zm48-112h16v16h-16zm-280-168h16v16h-16zm83.977 88.459c-1.215 15.792-8.453 31.058-20.379 42.984s-27.192 19.164-42.985 20.379q-2.369.182-4.7.182c-14.41 0-27.47-5.2-37.17-14.9-10.744-10.745-15.972-25.614-14.722-41.87 1.215-15.792 8.453-31.057 20.379-42.984 24.954-24.953 63.019-27.492 84.853-5.657 10.747 10.741 15.974 25.607 14.724 41.866zm-51.977-72.459v-16h112v16zm176 56h-104v-16h104zm-184 280h-16v-16h16z" fill="#0a2ff1" data-original="#000000" style="" class=""/><path xmlns="http://www.w3.org/2000/svg" d="m200 127.683c-12.463 0-25.812 5.406-36.284 15.879-9.228 9.227-14.818 20.91-15.739 32.9-.887 11.524 2.693 21.939 10.082 29.327s17.8 10.966 29.327 10.083c11.987-.922 23.671-6.512 32.9-15.739 9.228-9.228 14.818-20.91 15.739-32.9.887-11.523-2.693-21.939-10.082-29.327-6.871-6.871-16.133-10.223-25.943-10.223zm0 52.163h-16v-16h16z" fill="#0a2ff1" data-original="#000000" style="" class=""/><path xmlns="http://www.w3.org/2000/svg" d="m312 320h-176v-16h56v-40h-159.844a225.353 225.353 0 0 0 4.982 40h50.862v16h-46.76a221.144 221.144 0 0 0 16.26 40h254.5zm-192 0h-16v-16h16z" fill="#0a2ff1" data-original="#000000" style="" class=""/><path xmlns="http://www.w3.org/2000/svg" d="m448 336h32v16h-32z" fill="#0a2ff1" data-original="#000000" style="" class=""/><path xmlns="http://www.w3.org/2000/svg" d="m376 408h72v-16h-60.687z" fill="#0a2ff1" data-original="#000000" style="" class=""/><path xmlns="http://www.w3.org/2000/svg" d="m376 424h24v16h-24z" fill="#0a2ff1" data-original="#000000" style="" class=""/><path xmlns="http://www.w3.org/2000/svg" d="m344 72h40v16h-40z" fill="#0a2ff1" data-original="#000000" style="" class=""/><path xmlns="http://www.w3.org/2000/svg" d="m440 128v-16h-49.578l24 16z" fill="#0a2ff1" data-original="#000000" style="" class=""/><path xmlns="http://www.w3.org/2000/svg" d="m436.653 176h27.347v-16h-29.633z" fill="#0a2ff1" data-original="#000000" style="" class=""/><path xmlns="http://www.w3.org/2000/svg" d="m360 40h16v16h-16z" fill="#0a2ff1" data-original="#000000" style="" class=""/><path xmlns="http://www.w3.org/2000/svg" d="m456 128h16v16h-16z" fill="#0a2ff1" data-original="#000000" style="" class=""/><path xmlns="http://www.w3.org/2000/svg" d="m416 424h16v16h-16z" fill="#0a2ff1" data-original="#000000" style="" class=""/></g></svg>
